<svg xmlns="http://www.w3.org/2000/svg" xml:space="preserve" style="fill-rule:evenodd;clip-rule:evenodd;stroke-linejoin:round;stroke-miterlimit:2" viewBox="0 0 119 30"><path d="M510.454 521.058a17.66 17.66 0 0 1 12.529-5.189c4.882 0 9.301 1.974 12.505 5.165l.012-11.8a27.3 27.3 0 0 0-12.517-3.023c-4.51 0-8.791 1.229-12.543 3.162z" style="fill:#f26521;fill-rule:nonzero" transform="translate(-266.611 -272.303)scale(.53792)"/><path d="M535.5 466.325a17.66 17.66 0 0 1-12.526 5.188 17.67 17.67 0 0 1-12.506-5.165l-.014 11.799a27.3 27.3 0 0 0 12.52 3.024 27.26 27.26 0 0 0 12.518-3.024z" style="fill:#efa715;fill-rule:nonzero" transform="translate(-266.611 -229.39)scale(.53792)"/><path d="M510.479 506.202a17.66 17.66 0 0 1-5.19-12.528c0-4.88 1.975-9.3 5.165-12.506l-11.8-.012a27.3 27.3 0 0 0-3.022 12.518c0 4.512 1.091 8.769 3.023 12.52z" style="fill:#5b57a6;fill-rule:nonzero" transform="translate(-266.611 -250.834)scale(.53792)"/><path d="M535.494 481.19a17.66 17.66 0 0 1 5.19 12.53c0 4.881-1.974 9.3-5.166 12.503l11.8.013a27.25 27.25 0 0 0 3.022-12.516c0-4.512-1.09-8.769-3.023-12.522z" style="fill:#009283;fill-rule:nonzero" transform="translate(-266.611 -250.87)scale(.53792)"/><path d="M584.213 493.686c0-5.568-3.894-10.04-9.563-10.04s-9.562 4.472-9.562 10.04 3.892 10.043 9.562 10.043c5.669 0 9.563-4.476 9.563-10.043m-22.199 0c0-7.309 5.293-12.703 12.636-12.703 7.341 0 12.636 5.394 12.636 12.703s-5.295 12.706-12.636 12.706c-7.343 0-12.636-5.398-12.636-12.706" style="fill:#fff;fill-rule:nonzero" transform="translate(-266.611 -250.843)scale(.53792)"/><path d="M599.061 488.613c3.503 0 5.758-2.635 5.758-6.034s-2.255-6.036-5.758-6.036c-3.505 0-5.758 2.636-5.758 6.036s2.253 6.034 5.758 6.034m-8.461-14.15h2.703v2.357h.07c1.492-1.734 3.469-2.775 5.826-2.775 5.1 0 8.533 3.609 8.533 8.534 0 4.856-3.572 8.531-8.116 8.531-2.915 0-5.238-1.457-6.243-3.295h-.07v10.554H590.6z" style="fill:#fff;fill-rule:nonzero" transform="translate(-266.611 -242.795)scale(.53792)"/><path d="M623.409 488.38c-.103-2.74-1.908-4.578-4.891-4.578-2.981 0-4.958 1.838-5.305 4.578zm2.325 6.626c-1.91 2.462-4.197 3.363-7.216 3.363-5.098 0-8.219-3.814-8.219-8.531 0-5.029 3.538-8.534 8.324-8.534 4.579 0 7.699 3.123 7.699 8.5v.866h-13.109c.207 2.809 2.357 5.202 5.305 5.202 2.324 0 3.884-.831 5.168-2.462z" style="fill:#fff;fill-rule:nonzero" transform="translate(-266.611 -246.7)scale(.53792)"/><path d="M629.826 485.989c0-1.493-.138-2.775-.138-3.85h2.565c0 .867.07 1.767.07 2.67h.072c.726-1.595 2.739-3.088 5.408-3.088 4.266 0 6.173 2.707 6.173 6.625v10.023h-2.705v-9.744c0-2.706-1.18-4.406-3.712-4.406-3.502 0-5.03 2.532-5.03 6.244v7.906h-2.703z" style="fill:#fff;fill-rule:nonzero" transform="translate(-266.611 -246.924)scale(.53792)"/><path d="M649.781 481.6h4.269l8.199 18.954h.068l8.261-18.954h4.168v24.178h-2.867v-20.285h-.068l-8.675 20.285h-1.743l-8.675-20.285h-.069v20.285h-2.868zm33.846 10.656h2.561c3.176 0 7.311 0 7.311-3.998 0-3.482-3.04-3.994-5.841-3.994h-4.031zM680.76 481.6h6.18c4.679 0 9.632.682 9.632 6.658 0 3.517-2.289 5.807-6.045 6.388l6.865 11.132h-3.517l-6.559-10.859h-3.689v10.859h-2.867z" style="fill:#fff;fill-rule:nonzero" transform="translate(-266.611 -250.844)scale(.53792)"/><path d="M712.733 485.864c-.959-1.537-2.665-2.218-4.408-2.218-2.528 0-5.156 1.195-5.156 4.063 0 2.22 1.229 3.212 5.088 4.441 3.757 1.196 7.24 2.425 7.24 7.17 0 4.817-4.133 7.072-8.502 7.072-2.802 0-5.807-.923-7.446-3.348l2.457-2.015c1.025 1.778 3.074 2.7 5.16 2.7 2.456 0 5.258-1.437 5.258-4.203 0-2.971-2.016-3.484-6.319-4.918-3.416-1.128-6.009-2.63-6.009-6.659 0-4.644 3.995-6.966 8.229-6.966 2.698 0 4.988.75 6.761 2.832z" style="fill:#fff;fill-rule:nonzero" transform="translate(-266.611 -250.843)scale(.53792)"/><path d="M603.114 468.828h.907l1.742 4.025h.012l1.756-4.025h.886v5.135h-.61v-4.308h-.014l-1.844 4.308h-.368l-1.843-4.308h-.014v4.308h-.61zm7.957 0h3.227v.565h-2.618v1.611h2.445v.566h-2.445v1.827h2.75v.566h-3.359zm6.049 4.569h1.16c1.175 0 2.068-.594 2.068-2.001s-.893-2.003-2.068-2.003h-1.16zm-.61-4.569h1.973c1.009 0 2.517.674 2.517 2.568 0 1.893-1.508 2.567-2.517 2.567h-1.973z" style="fill:#fff;fill-rule:nonzero" transform="translate(-266.611 -226.86)scale(.53792)"/><path d="M622.922 468.827h.609v5.136h-.609z" style="fill:#fff" transform="translate(-266.611 -226.86)scale(.53792)"/><path d="M629.349 469.886c-.304-.413-.791-.623-1.284-.623-1.146 0-1.958 1.007-1.958 2.132 0 1.189.805 2.132 1.958 2.132.624 0 1.124-.254 1.488-.717l.456.383c-.456.617-1.124.9-1.944.9-1.472 0-2.611-1.139-2.611-2.698 0-1.509 1.088-2.698 2.611-2.698.697 0 1.378.239 1.814.804zm4.105-.275h-.014l-1.067 2.525h2.097zm-.275-.783h.572l2.184 5.135h-.711l-.523-1.262h-2.566l-.531 1.262h-.689zm4.38 0h.61v4.569h2.35v.566h-2.96zm8.138 2.262h.544c.674 0 1.553 0 1.553-.848 0-.74-.647-.849-1.24-.849h-.857zm-.608-2.262h1.312c.994 0 2.044.146 2.044 1.414 0 .747-.484 1.233-1.282 1.357l1.457 2.364h-.746l-1.394-2.307h-.783v2.307h-.608zm5.518 0h3.229v.565h-2.619v1.611h2.445v.566h-2.445v1.827h2.75v.566h-3.36zm8.842 1.058c-.304-.413-.791-.623-1.284-.623-1.145 0-1.958 1.007-1.958 2.132 0 1.189.806 2.132 1.958 2.132.624 0 1.124-.254 1.488-.717l.456.383c-.456.617-1.124.9-1.944.9-1.472 0-2.61-1.139-2.61-2.698 0-1.509 1.088-2.698 2.61-2.698.697 0 1.379.239 1.814.804zm6.579 1.509c0-1.182-.827-2.132-2.031-2.132s-2.031.95-2.031 2.132.827 2.132 2.031 2.132 2.031-.95 2.031-2.132m-4.714 0c0-1.553 1.124-2.698 2.683-2.698 1.561 0 2.685 1.145 2.685 2.698s-1.124 2.698-2.685 2.698c-1.559 0-2.683-1.146-2.683-2.698m7.753-.305h.544c.675 0 1.552 0 1.552-.848 0-.74-.644-.849-1.24-.849h-.856zm-.609-2.262h1.313c.994 0 2.045.146 2.045 1.414 0 .747-.486 1.233-1.284 1.357l1.458 2.364h-.747l-1.393-2.307h-.783v2.307h-.609zm5.89 4.569h1.16c1.176 0 2.067-.594 2.067-2.001s-.891-2.003-2.067-2.003h-1.16zm-.61-4.569h1.974c1.007 0 2.516.674 2.516 2.568 0 1.893-1.509 2.567-2.516 2.567h-1.974zm11.809.905c-.204-.326-.566-.47-.937-.47-.536 0-1.094.253-1.094.862 0 .472.26.682 1.081.943.798.254 1.537.515 1.537 1.524 0 1.023-.878 1.501-1.806 1.501-.595 0-1.233-.196-1.582-.711l.523-.428c.217.378.652.573 1.095.573.523 0 1.117-.304 1.117-.892 0-.631-.428-.74-1.342-1.045-.725-.238-1.277-.559-1.277-1.414 0-.987.849-1.479 1.748-1.479.574 0 1.06.159 1.437.602zm3.459 2.018-1.914-2.923h.776l1.443 2.32 1.487-2.32h.732l-1.914 2.923v2.212h-.61zm6.186-2.018c-.202-.326-.565-.47-.934-.47-.537 0-1.096.253-1.096.862 0 .472.262.682 1.081.943.798.254 1.538.515 1.538 1.524 0 1.023-.879 1.501-1.806 1.501-.596 0-1.233-.196-1.581-.711l.522-.428c.218.378.652.573 1.095.573.522 0 1.117-.304 1.117-.892 0-.631-.429-.74-1.342-1.045-.724-.238-1.276-.559-1.276-1.414 0-.987.849-1.479 1.748-1.479.572 0 1.058.159 1.435.602zm5.55-.34h-1.698v4.57h-.608v-4.57h-1.698v-.565h4.004zm1.516-.565h3.227v.565h-2.617v1.611h2.444v.566h-2.444v1.827h2.748v.566h-3.358zm5.243 0h.907l1.742 4.025h.013l1.755-4.025h.887v5.135h-.611v-4.308h-.014l-1.842 4.308h-.37l-1.843-4.308h-.014v4.308h-.61z" style="fill:#fff;fill-rule:nonzero" transform="translate(-266.611 -226.86)scale(.53792)"/></svg>