<?xml version="1.0" encoding="UTF-8" standalone="no"?>
<!DOCTYPE svg PUBLIC "-//W3C//DTD SVG 1.1//EN" "http://www.w3.org/Graphics/SVG/1.1/DTD/svg11.dtd">
<svg width="100%" height="100%" viewBox="0 0 119 30" version="1.1" xmlns="http://www.w3.org/2000/svg" xmlns:xlink="http://www.w3.org/1999/xlink" xml:space="preserve" xmlns:serif="http://www.serif.com/" style="fill-rule:evenodd;clip-rule:evenodd;stroke-linejoin:round;stroke-miterlimit:2;">
    <g transform="matrix(1,0,0,1,-7.85943,-37.4946)">
        <g>
            <g>
                <g transform="matrix(0.537923,0,0,0.537923,-258.752,-234.808)">
                    <path d="M510.454,521.058C513.66,517.852 518.09,515.869 522.983,515.869C527.865,515.869 532.284,517.843 535.488,521.034L535.5,509.234C531.75,507.303 527.493,506.211 522.983,506.211C518.473,506.211 514.192,507.44 510.44,509.373L510.454,521.058Z" style="fill:rgb(242,101,33);fill-rule:nonzero;"/>
                </g>
                <g transform="matrix(0.537923,0,0,0.537923,-258.752,-191.896)">
                    <path d="M535.5,466.325C532.295,469.53 527.866,471.513 522.974,471.513C518.093,471.513 513.673,469.54 510.468,466.348L510.454,478.147C514.207,480.079 518.462,481.171 522.974,481.171C527.484,481.171 531.742,480.079 535.492,478.147L535.5,466.325Z" style="fill:rgb(239,167,21);fill-rule:nonzero;"/>
                </g>
                <g transform="matrix(0.537923,0,0,0.537923,-258.752,-213.339)">
                    <path d="M510.479,506.202C507.272,502.996 505.289,498.568 505.289,493.674C505.289,488.794 507.264,484.374 510.454,481.168L498.654,481.156C496.723,484.908 495.632,489.163 495.632,493.674C495.632,498.186 496.723,502.443 498.655,506.194L510.479,506.202Z" style="fill:rgb(91,87,166);fill-rule:nonzero;"/>
                </g>
                <g transform="matrix(0.537923,0,0,0.537923,-258.752,-213.375)">
                    <path d="M535.494,481.19C538.7,484.395 540.684,488.826 540.684,493.72C540.684,498.601 538.71,503.02 535.518,506.223L547.318,506.236C549.25,502.486 550.34,498.229 550.34,493.72C550.34,489.208 549.25,484.951 547.317,481.198L535.494,481.19Z" style="fill:rgb(0,146,131);fill-rule:nonzero;"/>
                </g>
                <g transform="matrix(0.537923,0,0,0.537923,-258.752,-213.348)">
                    <path d="M584.213,493.686C584.213,488.118 580.319,483.646 574.65,483.646C568.98,483.646 565.088,488.118 565.088,493.686C565.088,499.253 568.98,503.729 574.65,503.729C580.319,503.729 584.213,499.253 584.213,493.686M562.014,493.686C562.014,486.377 567.307,480.983 574.65,480.983C581.991,480.983 587.286,486.377 587.286,493.686C587.286,500.994 581.991,506.392 574.65,506.392C567.307,506.392 562.014,500.994 562.014,493.686" style="fill:white;fill-rule:nonzero;"/>
                </g>
                <g transform="matrix(0.537923,0,0,0.537923,-258.752,-205.3)">
                    <path d="M599.061,488.613C602.564,488.613 604.819,485.978 604.819,482.579C604.819,479.179 602.564,476.543 599.061,476.543C595.556,476.543 593.303,479.179 593.303,482.579C593.303,485.978 595.556,488.613 599.061,488.613M590.6,474.463L593.303,474.463L593.303,476.82L593.373,476.82C594.865,475.086 596.842,474.045 599.199,474.045C604.299,474.045 607.732,477.654 607.732,482.579C607.732,487.435 604.16,491.11 599.616,491.11C596.701,491.11 594.378,489.653 593.373,487.815L593.303,487.815L593.303,498.369L590.6,498.369L590.6,474.463Z" style="fill:white;fill-rule:nonzero;"/>
                </g>
                <g transform="matrix(0.537923,0,0,0.537923,-258.752,-209.205)">
                    <path d="M623.409,488.38C623.306,485.64 621.501,483.802 618.518,483.802C615.537,483.802 613.56,485.64 613.213,488.38L623.409,488.38ZM625.734,495.006C623.824,497.468 621.537,498.369 618.518,498.369C613.42,498.369 610.299,494.555 610.299,489.838C610.299,484.809 613.837,481.304 618.623,481.304C623.202,481.304 626.322,484.427 626.322,489.804L626.322,490.67L613.213,490.67C613.42,493.479 615.57,495.872 618.518,495.872C620.842,495.872 622.402,495.041 623.686,493.41L625.734,495.006Z" style="fill:white;fill-rule:nonzero;"/>
                </g>
                <g transform="matrix(0.537923,0,0,0.537923,-258.752,-209.429)">
                    <path d="M629.826,485.989C629.826,484.496 629.688,483.214 629.688,482.139L632.253,482.139C632.253,483.006 632.323,483.906 632.323,484.809L632.395,484.809C633.121,483.214 635.134,481.721 637.803,481.721C642.069,481.721 643.976,484.428 643.976,488.346L643.976,498.369L641.271,498.369L641.271,488.625C641.271,485.919 640.091,484.219 637.559,484.219C634.057,484.219 632.529,486.751 632.529,490.463L632.529,498.369L629.826,498.369L629.826,485.989Z" style="fill:white;fill-rule:nonzero;"/>
                </g>
                <g transform="matrix(0.537923,0,0,0.537923,-258.752,-213.349)">
                    <path d="M649.781,481.6L654.05,481.6L662.249,500.554L662.317,500.554L670.578,481.6L674.746,481.6L674.746,505.778L671.879,505.778L671.879,485.493L671.811,485.493L663.136,505.778L661.393,505.778L652.718,485.493L652.649,485.493L652.649,505.778L649.781,505.778L649.781,481.6Z" style="fill:white;fill-rule:nonzero;"/>
                </g>
                <g transform="matrix(0.537923,0,0,0.537923,-258.752,-213.349)">
                    <path d="M683.627,492.256L686.188,492.256C689.364,492.256 693.499,492.256 693.499,488.258C693.499,484.776 690.459,484.264 687.658,484.264L683.627,484.264L683.627,492.256ZM680.76,481.6L686.94,481.6C691.619,481.6 696.572,482.282 696.572,488.258C696.572,491.775 694.283,494.065 690.527,494.646L697.392,505.778L693.875,505.778L687.316,494.919L683.627,494.919L683.627,505.778L680.76,505.778L680.76,481.6Z" style="fill:white;fill-rule:nonzero;"/>
                </g>
                <g transform="matrix(0.537923,0,0,0.537923,-258.752,-213.348)">
                    <path d="M712.733,485.864C711.774,484.327 710.068,483.646 708.325,483.646C705.797,483.646 703.169,484.841 703.169,487.709C703.169,489.929 704.398,490.921 708.257,492.15C712.014,493.346 715.497,494.575 715.497,499.32C715.497,504.137 711.364,506.392 706.995,506.392C704.193,506.392 701.188,505.469 699.549,503.044L702.006,501.029C703.031,502.807 705.08,503.729 707.166,503.729C709.622,503.729 712.424,502.292 712.424,499.526C712.424,496.555 710.408,496.042 706.105,494.608C702.689,493.48 700.096,491.978 700.096,487.949C700.096,483.305 704.091,480.983 708.325,480.983C711.023,480.983 713.313,481.733 715.086,483.815L712.733,485.864Z" style="fill:white;fill-rule:nonzero;"/>
                </g>
                <g transform="matrix(0.537923,0,0,0.537923,-258.752,-189.365)">
                    <path d="M603.114,468.828L604.021,468.828L605.763,472.853L605.775,472.853L607.531,468.828L608.417,468.828L608.417,473.963L607.807,473.963L607.807,469.655L607.793,469.655L605.949,473.963L605.581,473.963L603.738,469.655L603.724,469.655L603.724,473.963L603.114,473.963L603.114,468.828Z" style="fill:white;fill-rule:nonzero;"/>
                </g>
                <g transform="matrix(0.537923,0,0,0.537923,-258.752,-189.365)">
                    <path d="M611.071,468.828L614.298,468.828L614.298,469.393L611.68,469.393L611.68,471.004L614.125,471.004L614.125,471.57L611.68,471.57L611.68,473.397L614.43,473.397L614.43,473.963L611.071,473.963L611.071,468.828Z" style="fill:white;fill-rule:nonzero;"/>
                </g>
                <g transform="matrix(0.537923,0,0,0.537923,-258.752,-189.365)">
                    <path d="M617.12,473.397L618.28,473.397C619.455,473.397 620.348,472.803 620.348,471.396C620.348,469.989 619.455,469.393 618.28,469.393L617.12,469.393L617.12,473.397ZM616.51,468.828L618.483,468.828C619.492,468.828 621,469.502 621,471.396C621,473.289 619.492,473.963 618.483,473.963L616.51,473.963L616.51,468.828Z" style="fill:white;fill-rule:nonzero;"/>
                </g>
                <g transform="matrix(0.537923,0,0,0.537923,-258.752,-189.365)">
                    <rect x="622.922" y="468.827" width="0.609" height="5.136" style="fill:white;"/>
                </g>
                <g transform="matrix(0.537923,0,0,0.537923,-258.752,-189.365)">
                    <path d="M629.349,469.886C629.045,469.473 628.558,469.263 628.065,469.263C626.919,469.263 626.107,470.27 626.107,471.395C626.107,472.584 626.912,473.527 628.065,473.527C628.689,473.527 629.189,473.273 629.553,472.81L630.009,473.193C629.553,473.81 628.885,474.093 628.065,474.093C626.593,474.093 625.454,472.954 625.454,471.395C625.454,469.886 626.542,468.697 628.065,468.697C628.762,468.697 629.443,468.936 629.879,469.501L629.349,469.886Z" style="fill:white;fill-rule:nonzero;"/>
                </g>
                <g transform="matrix(0.537923,0,0,0.537923,-258.752,-189.365)">
                    <path d="M633.454,469.611L633.44,469.611L632.373,472.136L634.47,472.136L633.454,469.611ZM633.179,468.828L633.751,468.828L635.935,473.963L635.224,473.963L634.701,472.701L632.135,472.701L631.604,473.963L630.915,473.963L633.179,468.828Z" style="fill:white;fill-rule:nonzero;"/>
                </g>
                <g transform="matrix(0.537923,0,0,0.537923,-258.752,-189.365)">
                    <path d="M637.559,468.828L638.169,468.828L638.169,473.397L640.519,473.397L640.519,473.963L637.559,473.963L637.559,468.828Z" style="fill:white;fill-rule:nonzero;"/>
                </g>
                <g transform="matrix(0.537923,0,0,0.537923,-258.752,-189.365)">
                    <path d="M645.697,471.09L646.241,471.09C646.915,471.09 647.794,471.09 647.794,470.242C647.794,469.502 647.147,469.393 646.554,469.393L645.697,469.393L645.697,471.09ZM645.089,468.828L646.401,468.828C647.395,468.828 648.445,468.974 648.445,470.242C648.445,470.989 647.961,471.475 647.163,471.599L648.62,473.963L647.874,473.963L646.48,471.656L645.697,471.656L645.697,473.963L645.089,473.963L645.089,468.828Z" style="fill:white;fill-rule:nonzero;"/>
                </g>
                <g transform="matrix(0.537923,0,0,0.537923,-258.752,-189.365)">
                    <path d="M650.607,468.828L653.836,468.828L653.836,469.393L651.217,469.393L651.217,471.004L653.662,471.004L653.662,471.57L651.217,471.57L651.217,473.397L653.967,473.397L653.967,473.963L650.607,473.963L650.607,468.828Z" style="fill:white;fill-rule:nonzero;"/>
                </g>
                <g transform="matrix(0.537923,0,0,0.537923,-258.752,-189.365)">
                    <path d="M659.449,469.886C659.145,469.473 658.658,469.263 658.165,469.263C657.02,469.263 656.207,470.27 656.207,471.395C656.207,472.584 657.013,473.527 658.165,473.527C658.789,473.527 659.289,473.273 659.653,472.81L660.109,473.193C659.653,473.81 658.985,474.093 658.165,474.093C656.693,474.093 655.555,472.954 655.555,471.395C655.555,469.886 656.643,468.697 658.165,468.697C658.862,468.697 659.544,468.936 659.979,469.501L659.449,469.886Z" style="fill:white;fill-rule:nonzero;"/>
                </g>
                <g transform="matrix(0.537923,0,0,0.537923,-258.752,-189.365)">
                    <path d="M666.028,471.395C666.028,470.213 665.201,469.263 663.997,469.263C662.793,469.263 661.966,470.213 661.966,471.395C661.966,472.577 662.793,473.527 663.997,473.527C665.201,473.527 666.028,472.577 666.028,471.395M661.314,471.395C661.314,469.842 662.438,468.697 663.997,468.697C665.558,468.697 666.682,469.842 666.682,471.395C666.682,472.947 665.558,474.093 663.997,474.093C662.438,474.093 661.314,472.947 661.314,471.395" style="fill:white;fill-rule:nonzero;"/>
                </g>
                <g transform="matrix(0.537923,0,0,0.537923,-258.752,-189.365)">
                    <path d="M669.067,471.09L669.611,471.09C670.286,471.09 671.163,471.09 671.163,470.242C671.163,469.502 670.519,469.393 669.923,469.393L669.067,469.393L669.067,471.09ZM668.458,468.828L669.771,468.828C670.765,468.828 671.816,468.974 671.816,470.242C671.816,470.989 671.33,471.475 670.532,471.599L671.99,473.963L671.243,473.963L669.85,471.656L669.067,471.656L669.067,473.963L668.458,473.963L668.458,468.828Z" style="fill:white;fill-rule:nonzero;"/>
                </g>
                <g transform="matrix(0.537923,0,0,0.537923,-258.752,-189.365)">
                    <path d="M674.348,473.397L675.508,473.397C676.684,473.397 677.575,472.803 677.575,471.396C677.575,469.989 676.684,469.393 675.508,469.393L674.348,469.393L674.348,473.397ZM673.738,468.828L675.712,468.828C676.719,468.828 678.228,469.502 678.228,471.396C678.228,473.289 676.719,473.963 675.712,473.963L673.738,473.963L673.738,468.828Z" style="fill:white;fill-rule:nonzero;"/>
                </g>
                <g transform="matrix(0.537923,0,0,0.537923,-258.752,-189.365)">
                    <path d="M685.547,469.733C685.343,469.407 684.981,469.263 684.61,469.263C684.074,469.263 683.516,469.516 683.516,470.125C683.516,470.597 683.776,470.807 684.597,471.068C685.395,471.322 686.134,471.583 686.134,472.592C686.134,473.615 685.256,474.093 684.328,474.093C683.733,474.093 683.095,473.897 682.746,473.382L683.269,472.954C683.486,473.332 683.921,473.527 684.364,473.527C684.887,473.527 685.481,473.223 685.481,472.635C685.481,472.004 685.053,471.895 684.139,471.59C683.414,471.352 682.862,471.031 682.862,470.176C682.862,469.189 683.711,468.697 684.61,468.697C685.184,468.697 685.67,468.856 686.047,469.299L685.547,469.733Z" style="fill:white;fill-rule:nonzero;"/>
                </g>
                <g transform="matrix(0.537923,0,0,0.537923,-258.752,-189.365)">
                    <path d="M689.006,471.751L687.092,468.828L687.868,468.828L689.311,471.148L690.798,468.828L691.53,468.828L689.616,471.751L689.616,473.963L689.006,473.963L689.006,471.751Z" style="fill:white;fill-rule:nonzero;"/>
                </g>
                <g transform="matrix(0.537923,0,0,0.537923,-258.752,-189.365)">
                    <path d="M695.192,469.733C694.99,469.407 694.627,469.263 694.258,469.263C693.721,469.263 693.162,469.516 693.162,470.125C693.162,470.597 693.424,470.807 694.243,471.068C695.041,471.322 695.781,471.583 695.781,472.592C695.781,473.615 694.902,474.093 693.975,474.093C693.379,474.093 692.742,473.897 692.394,473.382L692.916,472.954C693.134,473.332 693.568,473.527 694.011,473.527C694.533,473.527 695.128,473.223 695.128,472.635C695.128,472.004 694.699,471.895 693.786,471.59C693.062,471.352 692.51,471.031 692.51,470.176C692.51,469.189 693.359,468.697 694.258,468.697C694.83,468.697 695.316,468.856 695.693,469.299L695.192,469.733Z" style="fill:white;fill-rule:nonzero;"/>
                </g>
                <g transform="matrix(0.537923,0,0,0.537923,-258.752,-189.365)">
                    <path d="M700.742,469.393L699.044,469.393L699.044,473.963L698.436,473.963L698.436,469.393L696.738,469.393L696.738,468.828L700.742,468.828L700.742,469.393Z" style="fill:white;fill-rule:nonzero;"/>
                </g>
                <g transform="matrix(0.537923,0,0,0.537923,-258.752,-189.365)">
                    <path d="M702.258,468.828L705.485,468.828L705.485,469.393L702.868,469.393L702.868,471.004L705.312,471.004L705.312,471.57L702.868,471.57L702.868,473.397L705.616,473.397L705.616,473.963L702.258,473.963L702.258,468.828Z" style="fill:white;fill-rule:nonzero;"/>
                </g>
                <g transform="matrix(0.537923,0,0,0.537923,-258.752,-189.365)">
                    <path d="M707.501,468.828L708.408,468.828L710.15,472.853L710.163,472.853L711.918,468.828L712.805,468.828L712.805,473.963L712.194,473.963L712.194,469.655L712.18,469.655L710.338,473.963L709.968,473.963L708.125,469.655L708.111,469.655L708.111,473.963L707.501,473.963L707.501,468.828Z" style="fill:white;fill-rule:nonzero;"/>
                </g>
            </g>
        </g>
    </g>
</svg>
