<svg viewBox="0 0 116 29" xmlns="http://www.w3.org/2000/svg" xml:space="preserve" style="fill-rule:evenodd;clip-rule:evenodd;stroke-linejoin:round;stroke-miterlimit:2"><path d="M133.713 521.058a17.668 17.668 0 0 1 12.53-5.189 17.66 17.66 0 0 1 12.504 5.165l.013-11.8a27.271 27.271 0 0 0-12.517-3.023c-4.511 0-8.791 1.229-12.544 3.162l.014 11.685Z" style="fill:#f26521;fill-rule:nonzero" transform="matrix(.52491 0 0 .52491 -62.408 -265.717)"/><path d="M158.76 466.325a17.657 17.657 0 0 1-12.528 5.188 17.67 17.67 0 0 1-12.505-5.164l-.014 11.799a27.273 27.273 0 0 0 12.519 3.023c4.511 0 8.768-1.091 12.519-3.024l.009-11.822Z" style="fill:#efa715;fill-rule:nonzero" transform="matrix(.52491 0 0 .52491 -62.408 -223.843)"/><path d="M133.738 506.202a17.66 17.66 0 0 1-5.19-12.528c0-4.88 1.974-9.3 5.165-12.506l-11.8-.012a27.275 27.275 0 0 0-3.022 12.518c0 4.512 1.091 8.768 3.024 12.52l11.823.008Z" style="fill:#5b57a6;fill-rule:nonzero" transform="matrix(.52491 0 0 .52491 -62.408 -244.767)"/><path d="M158.753 481.189a17.659 17.659 0 0 1 5.19 12.53c0 4.881-1.974 9.3-5.166 12.503l11.801.014a27.261 27.261 0 0 0 3.022-12.517c0-4.512-1.09-8.769-3.024-12.522l-11.823-.008Z" style="fill:#009283;fill-rule:nonzero" transform="matrix(.52491 0 0 .52491 -62.408 -244.802)"/><path d="M207.472 493.686c0-5.568-3.894-10.04-9.563-10.04-5.67 0-9.561 4.472-9.561 10.04 0 5.567 3.891 10.042 9.561 10.042 5.669 0 9.563-4.475 9.563-10.042m-22.201 0c0-7.309 5.295-12.703 12.638-12.703 7.342 0 12.637 5.394 12.637 12.703 0 7.309-5.295 12.706-12.637 12.706-7.343 0-12.638-5.397-12.638-12.706" style="fill:#231f20;fill-rule:nonzero" transform="matrix(.52491 0 0 .52491 -62.408 -244.776)"/><path d="M222.32 488.612c3.504 0 5.759-2.635 5.759-6.034 0-3.4-2.255-6.036-5.759-6.036-3.505 0-5.757 2.636-5.757 6.036 0 3.399 2.252 6.034 5.757 6.034m-8.461-14.15h2.704v2.357h.069c1.493-1.734 3.47-2.775 5.826-2.775 5.101 0 8.533 3.609 8.533 8.534 0 4.856-3.571 8.532-8.115 8.532-2.915 0-5.239-1.458-6.244-3.296h-.069v10.555h-2.704v-23.907Z" style="fill:#231f20;fill-rule:nonzero" transform="matrix(.52491 0 0 .52491 -62.408 -236.922)"/><path d="M246.669 488.379c-.105-2.74-1.909-4.578-4.892-4.578-2.981 0-4.958 1.838-5.304 4.578h10.196Zm2.324 6.626c-1.909 2.462-4.198 3.364-7.216 3.364-5.097 0-8.218-3.815-8.218-8.532 0-5.029 3.537-8.534 8.324-8.534 4.579 0 7.698 3.123 7.698 8.5v.867h-13.108c.207 2.808 2.357 5.201 5.304 5.201 2.324 0 3.885-.832 5.168-2.462l2.048 1.596Z" style="fill:#231f20;fill-rule:nonzero" transform="matrix(.52491 0 0 .52491 -62.408 -240.732)"/><path d="M253.085 485.989c0-1.493-.139-2.775-.139-3.85h2.567c0 .867.07 1.767.07 2.67h.069c.729-1.595 2.741-3.088 5.41-3.088 4.267 0 6.173 2.707 6.173 6.625v10.023h-2.704v-9.743c0-2.707-1.18-4.407-3.712-4.407-3.503 0-5.03 2.532-5.03 6.244v7.906h-2.704v-12.38Z" style="fill:#231f20;fill-rule:nonzero" transform="matrix(.52491 0 0 .52491 -62.408 -240.952)"/><path d="M273.041 481.6h4.269l8.199 18.955h.068l8.261-18.955h4.168v24.178h-2.867v-20.285h-.069l-8.675 20.285h-1.744l-8.673-20.285h-.069v20.285h-2.868V481.6ZM306.887 492.256h2.56c3.177 0 7.312 0 7.312-3.998 0-3.482-3.04-3.994-5.842-3.994h-4.03v7.992ZM304.02 481.6h6.179c4.68 0 9.631.682 9.631 6.658 0 3.517-2.288 5.807-6.043 6.388l6.863 11.132h-3.516l-6.558-10.859h-3.689v10.859h-2.867V481.6Z" style="fill:#231f20;fill-rule:nonzero" transform="matrix(.52491 0 0 .52491 -62.408 -244.777)"/><path d="M335.991 485.864c-.958-1.537-2.664-2.218-4.407-2.218-2.528 0-5.155 1.195-5.155 4.063 0 2.22 1.229 3.212 5.087 4.441 3.757 1.196 7.241 2.425 7.241 7.171 0 4.816-4.134 7.071-8.503 7.071-2.801 0-5.808-.923-7.446-3.349l2.458-2.014c1.025 1.778 3.074 2.699 5.158 2.699 2.458 0 5.259-1.435 5.259-4.202 0-2.971-2.015-3.484-6.319-4.918-3.415-1.128-6.009-2.63-6.009-6.659 0-4.644 3.995-6.966 8.229-6.966 2.699 0 4.987.75 6.762 2.832l-2.355 2.049Z" style="fill:#231f20;fill-rule:nonzero" transform="matrix(.52491 0 0 .52491 -62.408 -244.776)"/><path d="M226.374 468.828h.906l1.741 4.025h.014l1.756-4.025h.885v5.135h-.61v-4.308h-.013l-1.844 4.308h-.369l-1.843-4.308h-.014v4.308h-.609v-5.135ZM234.331 468.828h3.227v.566h-2.619v1.61h2.445v.565h-2.445v1.828h2.749v.566h-3.357v-5.135ZM240.38 473.397h1.159c1.176 0 2.068-.594 2.068-2.001 0-1.408-.892-2.002-2.068-2.002h-1.159v4.003Zm-.61-4.569h1.973c1.008 0 2.517.674 2.517 2.568 0 1.893-1.509 2.567-2.517 2.567h-1.973v-5.135Z" style="fill:#231f20;fill-rule:nonzero" transform="matrix(.52491 0 0 .52491 -62.408 -221.373)"/><path style="fill:#231f20" d="M246.182 468.828h.609v5.135h-.609z" transform="matrix(.52491 0 0 .52491 -62.408 -221.373)"/><path d="M252.608 469.886c-.304-.413-.791-.624-1.284-.624-1.145 0-1.958 1.008-1.958 2.133 0 1.189.806 2.132 1.958 2.132.624 0 1.125-.254 1.488-.717l.457.383c-.457.617-1.124.9-1.945.9-1.472 0-2.611-1.139-2.611-2.698 0-1.509 1.088-2.698 2.611-2.698.697 0 1.378.239 1.814.804l-.53.385ZM256.714 469.611h-.015l-1.066 2.524h2.096l-1.015-2.524Zm-.276-.783h.573l2.183 5.135h-.711l-.522-1.262h-2.568l-.53 1.262h-.688l2.263-5.135ZM260.818 468.828h.611v4.569h2.348v.566h-2.959v-5.135ZM268.957 471.091h.543c.675 0 1.553 0 1.553-.848 0-.741-.646-.849-1.24-.849h-.856v1.697Zm-.609-2.263h1.313c.993 0 2.044.145 2.044 1.415 0 .746-.485 1.232-1.283 1.356l1.458 2.364h-.746l-1.394-2.306h-.783v2.306h-.609v-5.135ZM273.867 468.828h3.228v.566h-2.617v1.61h2.443v.565h-2.443v1.828h2.748v.566h-3.359v-5.135ZM282.709 469.886a1.583 1.583 0 0 0-1.284-.624c-1.146 0-1.959 1.008-1.959 2.133 0 1.189.805 2.132 1.959 2.132.624 0 1.124-.254 1.487-.717l.456.383c-.456.617-1.124.9-1.943.9-1.472 0-2.611-1.139-2.611-2.698 0-1.509 1.088-2.698 2.611-2.698.696 0 1.378.239 1.813.804l-.529.385ZM289.288 471.395c0-1.183-.827-2.133-2.031-2.133-1.204 0-2.031.95-2.031 2.133 0 1.182.827 2.132 2.031 2.132 1.204 0 2.031-.95 2.031-2.132m-4.715 0c0-1.553 1.124-2.698 2.684-2.698 1.559 0 2.683 1.145 2.683 2.698 0 1.552-1.124 2.698-2.683 2.698-1.56 0-2.684-1.146-2.684-2.698M292.327 471.091h.543c.675 0 1.553 0 1.553-.848 0-.741-.646-.849-1.24-.849h-.856v1.697Zm-.61-2.263h1.312c.995 0 2.046.145 2.046 1.415 0 .746-.485 1.232-1.283 1.356l1.458 2.364h-.748l-1.393-2.306h-.782v2.306h-.61v-5.135ZM297.606 473.397h1.162c1.174 0 2.066-.594 2.066-2.001 0-1.408-.892-2.002-2.066-2.002h-1.162v4.003Zm-.608-4.569h1.973c1.008 0 2.516.674 2.516 2.568 0 1.893-1.508 2.567-2.516 2.567h-1.973v-5.135ZM308.806 469.733c-.203-.326-.566-.471-.936-.471-.537 0-1.096.254-1.096.863 0 .472.262.682 1.081.943.799.254 1.539.515 1.539 1.523 0 1.023-.879 1.502-1.806 1.502-.596 0-1.234-.196-1.582-.711l.522-.428c.217.378.654.573 1.095.573.523 0 1.117-.304 1.117-.892 0-.631-.427-.74-1.342-1.045-.724-.239-1.276-.558-1.276-1.414 0-.987.849-1.479 1.748-1.479.573 0 1.059.159 1.436.602l-.5.434ZM312.266 471.751l-1.915-2.923h.776l1.443 2.321 1.487-2.321h.733l-1.915 2.923v2.212h-.609v-2.212ZM318.452 469.733c-.203-.326-.565-.471-.935-.471-.537 0-1.095.254-1.095.863 0 .472.261.682 1.081.943.798.254 1.537.515 1.537 1.523 0 1.023-.878 1.502-1.806 1.502-.595 0-1.233-.196-1.582-.711l.524-.428c.217.378.652.573 1.095.573.521 0 1.116-.304 1.116-.892 0-.631-.427-.74-1.341-1.045-.726-.239-1.277-.558-1.277-1.414 0-.987.849-1.479 1.748-1.479.573 0 1.059.159 1.436.602l-.501.434ZM324.002 469.394h-1.698v4.569h-.609v-4.569h-1.698v-.566h4.005v.566ZM325.517 468.828h3.227v.566h-2.617v1.61h2.443v.565h-2.443v1.828h2.749v.566h-3.359v-5.135ZM330.761 468.828h.907l1.74 4.025h.015l1.755-4.025h.885v5.135h-.609v-4.308h-.015l-1.841 4.308h-.371l-1.842-4.308h-.015v4.308h-.609v-5.135Z" style="fill:#231f20;fill-rule:nonzero" transform="matrix(.52491 0 0 .52491 -62.408 -221.373)"/></svg>