<svg xmlns="http://www.w3.org/2000/svg" xml:space="preserve" style="fill-rule:evenodd;clip-rule:evenodd;stroke-linejoin:round;stroke-miterlimit:2" viewBox="0 0 36 36"><path d="M133.713 261.402a17.67 17.67 0 0 1 12.53-5.187 17.66 17.66 0 0 1 12.504 5.164l.013-11.799a27.25 27.25 0 0 0-12.517-3.023c-4.511 0-8.791 1.227-12.544 3.161z" style="fill:#f26521;fill-rule:nonzero" transform="translate(-76.942 -159.563)scale(.64716)"/><path d="M158.76 206.671a17.66 17.66 0 0 1-12.528 5.189 17.67 17.67 0 0 1-12.505-5.164l-.014 11.799a27.3 27.3 0 0 0 12.519 3.022c4.511 0 8.768-1.091 12.519-3.022z" style="fill:#efa715;fill-rule:nonzero" transform="translate(-76.942 -107.938)scale(.64716)"/><path d="M133.738 246.547a17.66 17.66 0 0 1-5.19-12.527c0-4.883 1.974-9.301 5.165-12.506l-11.8-.013a27.3 27.3 0 0 0-3.022 12.519c0 4.51 1.091 8.767 3.024 12.518z" style="fill:#5b57a6;fill-rule:nonzero" transform="translate(-76.942 -133.734)scale(.64716)"/><path d="M158.753 221.535a17.66 17.66 0 0 1 5.19 12.53c0 4.881-1.974 9.3-5.166 12.503l11.801.013a27.25 27.25 0 0 0 3.022-12.516c0-4.512-1.09-8.769-3.024-12.521z" style="fill:#009283;fill-rule:nonzero" transform="translate(-76.942 -133.778)scale(.64716)"/></svg>